<svg id="Layer_1" data-name="Layer 1" xmlns="http://www.w3.org/2000/svg" viewBox="0 0 44.739 44.749"><defs><style>.cls-1{fill:#cc3632;}.cls-2{fill:#fff;fill-rule:evenodd;}</style></defs><title>1</title><rect class="cls-1" x="0.087" y="0.377" width="44.739" height="44.749"/><path class="cls-2" d="M21.783,7.409a6.553,6.553,0,0,1,.974.753,9.226,9.226,0,0,1,.975,1.266,8.165,8.165,0,0,1,.823,1.727,7.368,7.368,0,0,1,.292,2.321A6.6,6.6,0,0,1,23.8,17.293a9,9,0,0,1-1.045,1.265c-.452.372-.823.824-1.346,1.2a5.132,5.132,0,0,0-.753.974A1.836,1.836,0,0,0,20.286,22a1.866,1.866,0,0,0,.372,1.125,8.455,8.455,0,0,0,.673.743l1.5,1.275A13.13,13.13,0,0,1,25.3,27.689a6.252,6.252,0,0,1,1.044,3.666A7.663,7.663,0,0,1,23.5,37.121c-1.939,1.717-4.862,2.611-8.528,2.692q-4.716,0-6.961-2.019a5.375,5.375,0,0,1-2.32-4.34,6.206,6.206,0,0,1,.753-2.772A6.633,6.633,0,0,1,9.137,27.99a14.616,14.616,0,0,1,4.56-1.647,29.857,29.857,0,0,1,3.9-.372,13,13,0,0,1-.824-1.346,3.03,3.03,0,0,1-.452-1.647A3.384,3.384,0,0,1,16.47,22c.08-.3.221-.523.3-.754a8.844,8.844,0,0,1-1.426.081,6.725,6.725,0,0,1-5.455-2.25A6.707,6.707,0,0,1,7.942,14.3a8.112,8.112,0,0,1,2.772-5.986,9.294,9.294,0,0,1,3.958-2.019,17.475,17.475,0,0,1,3.816-.452H27.4L24.626,7.409ZM23.5,33a4.522,4.522,0,0,0-1.115-2.993,22.856,22.856,0,0,0-3.666-2.923c-.3,0-.6-.07-.975-.07-.231,0-.823,0-1.727.07-.894.151-1.869.382-2.843.6-.221.07-.522.221-.964.371a6.506,6.506,0,0,0-1.276.824,4.743,4.743,0,0,0-1.577,3.365,4.621,4.621,0,0,0,2.1,3.9,8.859,8.859,0,0,0,5.535,1.567A7.326,7.326,0,0,0,21.783,36.3,3.624,3.624,0,0,0,23.5,33ZM17.293,19.985a4.111,4.111,0,0,0,2.923-1.276,5.763,5.763,0,0,0,.743-1.718,10.8,10.8,0,0,0,.081-1.5,11.82,11.82,0,0,0-1.356-5.314,6.593,6.593,0,0,0-1.637-2.1,4.47,4.47,0,0,0-2.4-.824,3.718,3.718,0,0,0-2.993,1.5,5.688,5.688,0,0,0-.975,3.294,10.008,10.008,0,0,0,1.427,5.013,6.905,6.905,0,0,0,1.8,2.1,3.553,3.553,0,0,0,2.39.824Z"/><polygon class="cls-2" points="39.371 10.633 34.65 10.633 34.65 5.992 32.41 5.992 32.41 10.633 27.77 10.633 27.77 12.873 32.41 12.873 32.41 17.584 34.65 17.584 34.65 12.873 39.371 12.873 39.371 10.633"/></svg>