<svg xmlns="http://www.w3.org/2000/svg" xmlns:xlink="http://www.w3.org/1999/xlink" viewBox="0 0 16 16" version="1.1">
<g style="fill: #055BA8">
<path style=" " d="M 7.5 1 C 3.917969 1 1 3.917969 1 7.5 C 1 11.082031 3.917969 14 7.5 14 C 11.082031 14 14 11.082031 14 7.5 C 14 3.917969 11.082031 1 7.5 1 Z M 7 2.140625 L 7 4 L 5.609375 4 C 5.679688 3.824219 5.746094 3.636719 5.828125 3.480469 C 6.179688 2.777344 6.589844 2.339844 7 2.140625 Z M 8 2.140625 C 8.410156 2.339844 8.820313 2.777344 9.171875 3.480469 C 9.253906 3.636719 9.320313 3.824219 9.390625 4 L 8 4 Z M 5.273438 2.472656 C 5.152344 2.652344 5.03125 2.832031 4.929688 3.03125 C 4.78125 3.332031 4.648438 3.65625 4.53125 4 L 3.269531 4 C 3.808594 3.351563 4.488281 2.820313 5.273438 2.472656 Z M 9.726563 2.472656 C 10.511719 2.820313 11.191406 3.351563 11.730469 4 L 10.46875 4 C 10.351563 3.65625 10.21875 3.332031 10.066406 3.03125 C 9.96875 2.832031 9.847656 2.652344 9.726563 2.472656 Z M 2.609375 5 L 4.261719 5 C 4.125 5.621094 4.054688 6.296875 4.023438 7 L 2.039063 7 C 2.101563 6.285156 2.296875 5.609375 2.609375 5 Z M 5.296875 5 L 7 5 L 7 7 L 5.023438 7 C 5.058594 6.285156 5.148438 5.609375 5.296875 5 Z M 8 5 L 9.703125 5 C 9.851563 5.609375 9.941406 6.285156 9.976563 7 L 8 7 Z M 10.738281 5 L 12.390625 5 C 12.703125 5.609375 12.898438 6.285156 12.964844 7 L 10.972656 7 C 10.945313 6.296875 10.875 5.621094 10.738281 5 Z M 2.039063 8 L 4.023438 8 C 4.054688 8.703125 4.125 9.378906 4.261719 10 L 2.609375 10 C 2.296875 9.390625 2.101563 8.714844 2.039063 8 Z M 5.023438 8 L 7 8 L 7 10 L 5.296875 10 C 5.148438 9.390625 5.058594 8.714844 5.023438 8 Z M 8 8 L 9.976563 8 C 9.941406 8.714844 9.851563 9.390625 9.703125 10 L 8 10 Z M 10.972656 8 L 12.964844 8 C 12.898438 8.714844 12.703125 9.390625 12.390625 10 L 10.738281 10 C 10.875 9.378906 10.945313 8.703125 10.972656 8 Z M 3.269531 11 L 4.53125 11 C 4.648438 11.34375 4.78125 11.667969 4.929688 11.96875 C 5.03125 12.167969 5.152344 12.347656 5.273438 12.527344 C 4.488281 12.179688 3.808594 11.648438 3.269531 11 Z M 5.609375 11 L 7 11 L 7 12.859375 C 6.589844 12.660156 6.179688 12.222656 5.828125 11.519531 C 5.746094 11.363281 5.679688 11.175781 5.609375 11 Z M 8 11 L 9.390625 11 C 9.320313 11.175781 9.253906 11.363281 9.171875 11.519531 C 8.820313 12.222656 8.410156 12.660156 8 12.859375 Z M 10.46875 11 L 11.730469 11 C 11.191406 11.648438 10.511719 12.179688 9.726563 12.527344 C 9.847656 12.347656 9.96875 12.167969 10.066406 11.96875 C 10.21875 11.667969 10.351563 11.34375 10.46875 11 Z "></path>
</g>
</svg>