<?xml version="1.0" encoding="utf-8"?>
<!-- Generator: Adobe Illustrator 22.1.0, SVG Export Plug-In . SVG Version: 6.00 Build 0)  -->
<svg version="1.1" id="Layer_1" xmlns="http://www.w3.org/2000/svg" xmlns:xlink="http://www.w3.org/1999/xlink" x="0px" y="0px"
	 viewBox="0 0 300 68.046" style="enable-background:new 0 0 300 68.046;" xml:space="preserve">
<style type="text/css">
	.st0{fill:#1992D1;}
	.st1{fill:#055BA8;}
	.st2{fill:#EC1E26;}
	.st3{fill:#6D6E70;}
	.st4{fill-rule:evenodd;clip-rule:evenodd;fill:#045BA8;}
	.st5{fill:#045BA8;}
	.st6{fill-rule:evenodd;clip-rule:evenodd;fill:#231F20;}
	.st7{fill-rule:evenodd;clip-rule:evenodd;fill:#005AA9;}
	.st8{fill-rule:evenodd;clip-rule:evenodd;fill:#EC1C24;}
</style>
<title>1</title>
<g>
	<path class="st0" d="M71.813,61.544c0.739,0,1.478-0.148,2.069-0.443c0.443-0.296,0.739-0.887,0.887-1.478
		c0.148-0.296,0-0.739-0.148-1.034c-0.296-0.443-0.739-0.739-1.182-1.034l-2.512-1.625c-0.443-0.296-0.887-0.739-1.182-1.182
		c-0.296-0.443-0.443-0.739-0.443-1.33c0-0.443,0-0.887,0.148-1.478c0.148-1.182,0.887-2.216,1.773-2.955
		c1.182-0.739,2.66-1.182,4.137-1.034c0.739,0,1.33,0.148,2.069,0.296c0.443,0.148,1.034,0.296,1.478,0.591
		c0.148,0,0.148,0.148,0.296,0.296c0,0.148,0.148,0.148,0,0.296l-0.296,1.478c-0.148,0.296-0.296,0.443-0.591,0.296
		c-0.443-0.148-1.034-0.296-1.625-0.443s-1.182-0.148-1.921-0.148c-1.478,0-2.364,0.443-2.512,1.478
		c-0.148,0.296,0,0.591,0.148,0.887c0.296,0.443,0.739,0.739,1.182,1.034l2.216,1.478c0.591,0.296,1.034,0.739,1.478,1.33
		c0.296,0.443,0.443,0.887,0.591,1.33c0,0.591,0,1.034-0.148,1.625c-0.148,0.739-0.443,1.478-1.034,2.216
		c-0.591,0.739-1.33,1.33-2.069,1.625c-1.034,0.443-2.216,0.591-3.251,0.591c-0.739,0-1.625-0.148-2.364-0.296
		c-0.443-0.148-0.887-0.296-1.33-0.591c-0.148,0-0.296-0.148-0.296-0.296c0-0.148,0-0.148,0-0.296l0.296-1.478
		c0-0.296,0.296-0.443,0.591-0.296C69.301,61.249,70.631,61.544,71.813,61.544z"/>
	<path class="st0" d="M83.781,61.692c0.887,0,1.921-0.148,2.807-0.443c0.296-0.148,0.443,0,0.443,0.296l-0.296,1.33
		c0,0.148-0.148,0.296-0.148,0.296c-0.148,0.148-0.296,0.148-0.443,0.296c-0.887,0.443-1.921,0.591-2.807,0.591
		c-0.887,0-1.625-0.148-2.364-0.591c-0.591-0.296-1.182-1.034-1.33-1.625c-0.296-0.887-0.296-1.921,0-2.955l0.443-1.921
		c0.148-1.034,0.591-2.069,1.182-2.807c0.591-0.739,1.182-1.33,2.069-1.773c0.887-0.296,1.773-0.591,2.66-0.591
		s1.773,0.148,2.66,0.591c0.148,0,0.148,0.148,0.296,0.296c0,0.148,0,0.148,0,0.296l-0.296,1.33c0,0.296-0.296,0.443-0.443,0.296
		c-0.443-0.148-0.739-0.296-1.182-0.296c-0.443-0.148-0.887-0.148-1.33-0.148c-1.478,0-2.364,0.887-2.66,2.807l-0.443,1.921
		c-0.296,0.739-0.148,1.478,0.148,2.069C82.747,61.397,83.338,61.692,83.781,61.692z"/>
	<path class="st0" d="M94.864,54.156c-1.182,0-2.364,0.148-3.546,0.591c-0.296,0.148-0.443,0-0.443-0.296l0.296-1.33
		c0-0.148,0.148-0.296,0.148-0.296c0.148-0.148,0.296-0.148,0.443-0.296c0.591-0.148,1.182-0.443,1.773-0.443
		c0.739-0.148,1.478-0.148,2.069-0.148c0.739,0,1.478,0.148,2.216,0.443c0.591,0.296,1.034,0.739,1.182,1.33
		c0.148,0.739,0.296,1.478,0,2.216l-1.478,7.24c0,0.148,0,0.296-0.148,0.296c-0.148,0.148-0.148,0.148-0.296,0.148
		c-0.591,0.148-1.33,0.296-1.921,0.443c-0.591,0-1.33,0-2.069,0c-0.887,0-1.921-0.148-2.807-0.296
		c-0.591-0.148-1.034-0.591-1.33-1.182c-0.296-0.739-0.296-1.478,0-2.069v-0.148c0.148-0.591,0.296-1.034,0.591-1.625
		c0.296-0.443,0.591-0.887,1.034-1.182c0.443-0.296,1.034-0.591,1.625-0.739c0.739-0.148,1.625-0.296,2.364-0.148h1.478l0.148-0.887
		c0.148-0.591,0.148-1.182-0.148-1.33C95.75,54.156,95.307,54.008,94.864,54.156z M95.011,61.692l0.591-3.103h-1.478
		c-0.443,0-1.034,0-1.478,0.148c-0.296,0.148-0.591,0.296-0.739,0.591s-0.296,0.591-0.296,1.034v0.148
		c-0.148,0.296-0.148,0.591,0,0.887c0.148,0.296,0.296,0.443,0.591,0.443c0.443,0.148,0.887,0.148,1.33,0.148
		C94.125,61.988,94.568,61.84,95.011,61.692z"/>
	<path class="st0" d="M109.64,63.465c0,0.148-0.148,0.296-0.148,0.296c-0.148,0.148-0.148,0.148-0.296,0.148h-1.921
		c-0.148,0-0.148,0-0.296-0.148c0-0.148-0.148-0.148,0-0.296l1.478-6.945c0.148-0.443,0.148-0.887,0.148-1.33
		c0-0.296-0.296-0.591-0.443-0.739c-0.443-0.148-0.739-0.296-1.182-0.296c-0.739,0-1.478,0.148-2.069,0.296l-1.921,9.014
		c0,0.148-0.148,0.296-0.148,0.296c-0.148,0.148-0.148,0.148-0.296,0.148h-1.921c-0.148,0-0.148,0-0.296-0.148
		c0-0.148-0.148-0.148,0-0.296l2.216-10.491c0-0.148,0.148-0.296,0.443-0.443c0.739-0.148,1.625-0.296,2.364-0.443
		c0.739-0.148,1.478-0.148,2.364-0.148c1.182-0.148,2.512,0.296,3.399,1.034c0.739,1.034,0.887,2.364,0.443,3.546L109.64,63.465z"/>
	<path class="st0" d="M124.121,63.465c0,0.148-0.148,0.296-0.443,0.443c-0.591,0.148-1.182,0.148-1.625,0.148
		c-0.591,0-1.33,0-1.921-0.296c-0.443-0.148-0.739-0.591-0.887-1.034c-0.148-0.739-0.148-1.478,0.148-2.069l1.33-6.649l-1.625-0.296
		c-0.296,0-0.443-0.148-0.296-0.443l0.148-0.887c0-0.296,0.296-0.443,0.443-0.443h1.773l0.443-1.773
		c0-0.296,0.296-0.443,0.443-0.443l2.069-0.296h0c0.148,0,0.296,0.148,0.296,0.296l-0.443,2.216h2.069c0.148,0,0.148,0,0.296,0.148
		c0,0.148,0.148,0.148,0,0.296l-0.296,1.182c0,0.148-0.148,0.148-0.148,0.296c-0.148,0.148-0.148,0.148-0.296,0.148h-2.069
		l-1.33,6.649c-0.148,0.296-0.148,0.591-0.148,1.034c0,0.148,0.296,0.148,0.591,0.148h1.478c0.296,0,0.443,0.148,0.443,0.296
		L124.121,63.465z"/>
	<path class="st0" d="M136.533,58.737c-0.148,1.034-0.591,1.921-1.182,2.66c-0.591,0.739-1.33,1.478-2.069,1.921
		c-0.887,0.443-1.921,0.739-2.955,0.739c-0.887,0-1.773-0.148-2.66-0.739c-0.591-0.443-1.182-1.034-1.33-1.921s-0.148-1.773,0-2.66
		l0.296-1.773c0.148-1.034,0.591-1.921,1.182-2.66c0.591-0.739,1.33-1.478,2.069-1.921c0.887-0.443,1.921-0.739,2.955-0.739
		c0.887,0,1.773,0.148,2.66,0.739c0.591,0.443,1.182,1.182,1.33,1.921c0.148,0.887,0.148,1.773,0,2.66L136.533,58.737z
		 M133.725,58.737l0.296-1.773c0.148-0.739,0.148-1.478-0.148-2.069c-0.296-0.591-0.887-0.887-1.478-0.739
		c-0.739,0-1.33,0.296-1.773,0.739c-0.591,0.591-0.887,1.33-1.034,2.069l-0.296,1.773c-0.148,0.739-0.148,1.478,0.148,2.069
		c0.296,0.591,0.887,0.887,1.478,0.739c0.739,0,1.33-0.296,1.921-0.739C133.282,60.214,133.578,59.623,133.725,58.737z"/>
	<path class="st0" d="M156.037,53.122c-0.296,1.625-1.182,2.955-2.512,3.842c-1.478,0.739-2.955,1.182-4.581,1.182
		c-0.148,0-0.296,0-0.739,0c-0.443,0-0.591,0-0.739,0h-0.443l-1.182,5.467c0,0.148-0.148,0.296-0.148,0.296
		c-0.148,0.148-0.148,0.148-0.296,0.148h-2.069c-0.148,0-0.148,0-0.296-0.148c0-0.148-0.148-0.148,0-0.296l3.103-14.481
		c0-0.148,0.148-0.296,0.296-0.443s0.296-0.148,0.591-0.148c1.33-0.148,2.807-0.296,4.137-0.296
		c1.478-0.148,2.955,0.296,4.137,1.182c1.034,0.887,1.33,2.364,0.887,3.694H156.037z M153.23,53.122v-0.148
		c0.296-0.591,0.148-1.33-0.296-1.921c-0.739-0.443-1.478-0.591-2.216-0.591c-0.591,0-1.33,0-1.921,0.148l-1.034,5.024
		c0.739,0,1.33,0,1.921,0c0.591,0,1.33-0.148,1.921-0.296c0.443-0.148,0.887-0.443,1.182-0.887
		C152.934,54.008,153.082,53.565,153.23,53.122z"/>
	<path class="st0" d="M160.766,54.156c-1.182,0-2.364,0.148-3.546,0.591c-0.296,0.148-0.443,0-0.443-0.296l0.296-1.33
		c0-0.148,0.148-0.296,0.148-0.296c0.148-0.148,0.296-0.148,0.443-0.296c0.591-0.148,1.182-0.443,1.773-0.443
		c0.739-0.148,1.478-0.148,2.069-0.148c0.739,0,1.478,0.148,2.216,0.443c0.591,0.296,1.034,0.739,1.182,1.33
		c0.148,0.739,0.296,1.478,0,2.216l-1.478,7.24c0,0.148,0,0.296-0.148,0.296c-0.148,0.148-0.148,0.148-0.296,0.148
		c-0.591,0.148-1.33,0.296-1.921,0.443c-0.739,0.148-1.478,0.148-2.216,0.148c-0.887,0-1.921-0.148-2.807-0.296
		c-0.591-0.148-1.034-0.591-1.33-1.182c-0.296-0.591-0.296-1.33-0.148-2.069V60.51c0.148-0.591,0.296-1.034,0.591-1.625
		c0.296-0.443,0.591-0.887,1.034-1.182c0.443-0.296,1.034-0.591,1.625-0.739c0.739-0.148,1.625-0.296,2.364-0.148h1.478l0.148-0.887
		c0.148-0.591,0.148-1.182-0.148-1.33C161.652,54.156,161.209,54.008,160.766,54.156z M160.914,61.692l0.591-3.103h-1.478
		c-0.443,0-1.034,0-1.478,0.148c-0.296,0.148-0.591,0.296-0.739,0.591c-0.148,0.296-0.296,0.591-0.296,1.034v0.148
		c-0.148,0.296-0.148,0.591,0,0.887c0.148,0.296,0.296,0.443,0.591,0.443c0.443,0.148,0.887,0.148,1.33,0.148
		C159.879,61.988,160.47,61.84,160.914,61.692z"/>
	<path class="st0" d="M178.202,52.383L178.202,52.383l-6.206,12.412c-0.296,0.739-0.739,1.33-1.182,1.921
		c-0.443,0.443-0.887,0.887-1.478,1.034c-0.739,0.296-1.478,0.296-2.364,0.296c-0.443,0-0.739,0-1.182-0.148
		c-0.296,0-0.739-0.148-1.034-0.148c-0.296-0.148-0.443-0.148-0.443-0.296l0.296-1.33c0-0.148,0.148-0.148,0.148-0.296
		c0.148,0,0.148-0.148,0.296-0.148l0,0c0.148,0,0.591,0,1.182,0s1.034,0,1.182,0c0.296,0,0.591,0,0.739-0.148
		c0.296-0.148,0.443-0.296,0.591-0.443c0.148-0.296,0.443-0.591,0.591-0.887l0.296-0.591h-0.296c-0.296,0-0.443,0-0.591-0.148
		c-0.296-0.148-0.443-0.296-0.591-0.443c-0.148-0.296-0.296-0.739-0.296-1.182l-0.739-9.605v-0.148c0-0.296,0.296-0.443,0.443-0.296
		h2.069c0.148,0,0.148,0,0.296,0.148c0,0.148,0.148,0.148,0.148,0.296l0.296,8.57c0,0.296,0,0.443,0.148,0.443h0.148l4.137-9.014
		c0-0.148,0.296-0.296,0.443-0.296h2.216c0.148,0,0.148,0,0.296,0.148C178.202,52.088,178.202,52.235,178.202,52.383z"/>
	<g>
		<g>
			<path class="st1" d="M78.758,30.071h3.99c2.216,0,4.285-0.887,5.911-2.364c1.773-1.478,2.66-3.694,2.66-5.911v-1.034
				c0-2.364-1.034-4.433-2.66-6.058c-1.625-1.478-3.694-2.364-5.911-2.364h-8.718h-7.24c0.739,0.739,2.069,1.478,2.216,2.807v24.529
				c0,0.296-0.148,0.739-0.296,1.034c-0.296,0.591-0.591,1.034-1.034,1.625c-0.148,0.296-0.296,0.443-0.591,0.739h12.264
				c-0.148-0.148-0.296-0.296-0.443-0.443c-0.591-0.591-1.034-1.182-1.478-1.921c-0.296-0.296-0.296-0.591-0.296-1.034V16.92h1.478
				c2.364,0,3.694,2.512,3.99,5.024C83.486,25.342,81.861,28.593,78.758,30.071z"/>
			<path class="st1" d="M135.203,28.889l12.117-16.402h-10.491c0,0,0.148,0,0.148,0.148c1.478,1.182,1.625,3.251,0.443,4.581
				l-4.581,6.502l-0.591,0.443l-7.388-11.673h-7.536h-3.546l1.182,1.034l2.364,3.251l8.866,12.117c-0.148,3.99,0,7.979,0,11.821
				l-1.773,2.364h13.003l-2.069-2.364V28.889H135.203z"/>
			<g>
				<g>
					<path class="st1" d="M116.88,39.232l-0.148-0.443v4.285h3.546C118.949,42.04,117.767,40.71,116.88,39.232z"/>
					<path class="st1" d="M116.88,39.084l-9.9-26.597h-6.058v7.536l3.842,9.752h-3.399h-0.443H97.08l3.842-10.048l0.148,0.296
						v-7.536H95.75c0.739,0.739,1.182,1.625,1.182,2.66c0.148,0.591,0,1.182-0.296,1.773l-7.979,22.164l0,0l-0.296,0.887
						c-0.591,1.182-1.33,2.216-2.364,2.955h2.66h6.354c-0.739-0.443-1.182-1.182-1.33-2.069c-0.148-0.591-0.148-1.182,0-1.773
						l1.921-5.467h5.024h0.148h5.319l1.625,4.285c0.148,0.443,0.296,0.887,0.296,1.33c0.296,1.478-0.443,2.955-1.625,3.842h10.639"
						/>
					<path class="st1" d="M116.88,38.493"/>
					<path class="st1" d="M115.698,43.222"/>
				</g>
				<path class="st1" d="M100.922,20.023"/>
			</g>
		</g>
		<path class="st2" d="M0,12.339h10.048l8.275,22.903l7.093-19.061c0.148-0.591,0-1.182-0.296-1.625
			c-0.443-0.739-0.739-1.478-1.182-2.216h7.388c-0.443,1.478-1.034,3.251-1.625,4.876l-9.605,26.745
			c-2.807-0.443-5.615-1.625-7.831-3.546c-1.478-1.478-2.512-3.399-3.103-5.467L1.182,14.556C0.887,13.817,0.443,13.078,0,12.339z
			 M39.748,23.126v16.402c0,0.591,0.148,0.739,0.591,1.33l1.921,2.512h-9.309c0.443-0.739,1.034-1.625,1.625-2.364
			c0.443-0.443,0.591-1.034,0.591-1.625V16.477l-2.66-4.137h9.752l15.663,19.357V16.329c0-0.591-0.148-1.182-0.591-1.625
			c-0.443-0.739-1.034-1.478-1.625-2.364h9.309l-1.921,2.512c-0.443,0.296-0.591,0.887-0.591,1.33v27.927
			c-3.546-0.443-6.945-1.33-9.752-4.876L39.748,23.126z"/>
		<path class="st2" d="M160.914,27.854c0-1.33,0.148-2.807,0.591-4.137c0.443-1.33,1.034-2.66,1.625-3.842
			c1.478-2.364,3.546-4.285,6.058-5.615c2.807-1.478,5.911-2.216,9.161-2.069c1.33,0,2.66,0.148,3.99,0.443
			c1.33,0.443,2.512,0.887,3.694,1.625c2.364,1.33,4.137,3.251,5.467,5.615c0.739,1.33,1.182,2.66,1.625,3.99
			c0.296,1.478,0.591,2.955,0.591,4.433c0,2.364-0.591,4.728-1.478,6.797c-0.887,2.216-2.364,4.285-4.137,5.911l2.216,2.216
			c0.887,0.887,1.921,1.625,2.807,2.364c1.034,0.739,2.216,1.478,3.399,1.921c1.182,0.591,2.512,0.887,3.842,1.034
			c-1.182,0.887-2.364,1.625-3.694,2.216c-1.33,0.591-2.66,0.739-4.137,0.739c-1.33,0-2.512-0.296-3.694-0.739
			c-1.182-0.443-2.364-1.182-3.546-1.921c-1.182-0.739-2.216-1.625-3.103-2.364l-2.512-2.069c-0.148,0-0.443,0-0.739,0
			c-0.296,0-0.591,0-1.034,0.148l-1.478,0.148c-2.807,0-5.467-0.739-7.831-2.216c-2.364-1.478-4.285-3.546-5.467-6.058
			c-0.591-1.33-1.182-2.66-1.478-3.99C161.061,30.957,160.914,29.48,160.914,27.854L160.914,27.854z M169.927,28.002
			c0,1.034,0.148,2.069,0.296,3.103c0.296,1.034,0.443,1.921,0.887,2.807c0.591,1.625,1.478,3.251,2.66,4.433
			c1.182,1.182,2.66,1.773,4.285,1.773c2.069,0.148,3.99-0.887,4.876-2.66c1.182-2.069,1.625-4.433,1.625-6.797
			c0-0.739-0.148-1.921-0.148-3.399c-0.148-1.034-0.296-2.069-0.591-3.103c-0.296-0.887-0.591-1.773-0.887-2.66
			c-0.591-1.33-1.478-2.512-2.66-3.399c-1.182-0.739-2.512-1.182-3.99-1.182c-0.739,0-1.33,0.148-1.921,0.443
			c-0.591,0.296-1.182,0.591-1.625,1.034c-1.034,0.887-1.625,2.069-2.069,3.399c-0.443,1.478-0.591,2.955-0.591,4.581
			L169.927,28.002L169.927,28.002z M205.242,28.298c0.887-0.148,1.773-0.443,2.66-1.034c0.739-0.591,1.33-1.182,1.773-2.069
			c0.148-0.443,0.443-0.887,0.443-1.33c0.148-0.443,0.148-0.887,0.148-1.33c0-1.33-0.296-2.512-1.182-3.546
			c-0.887-1.034-2.216-1.478-3.546-1.478h-0.443L205.242,28.298z M205.242,30.81v8.718c-0.148,1.773,0.591,3.399,2.069,4.433v0.148
			h-12.708v-0.148c1.478-1.034,2.216-2.66,1.921-4.433V18.25c0-1.034-0.148-2.069-0.296-3.103c-0.296-0.887-0.887-1.478-1.625-1.921
			v-0.148h15.367c1.625,0,3.103,0.296,4.581,0.887c1.33,0.591,2.512,1.625,3.251,2.807c0.443,0.591,0.739,1.33,0.887,2.069
			c0.296,0.739,0.296,1.625,0.296,2.512c0,1.33-0.443,2.66-1.182,3.842c-1.034,1.625-2.512,2.955-4.433,3.694l6.058,10.343
			c1.034,1.773,2.364,3.399,3.99,4.728l-5.319,0.443h-1.33h-1.33c-1.034,0-1.921-0.148-2.807-0.591
			c-0.887-0.591-1.478-1.478-1.921-2.364L205.242,30.81z"/>
		<path class="st3" d="M147.615,26.081h8.718c0.296,0,0.443,0.148,0.443,0.443v3.399c0,0.296-0.148,0.443-0.443,0.443h-8.718
			c-0.296,0-0.443-0.148-0.443-0.443v-3.399C147.172,26.229,147.319,26.081,147.615,26.081z"/>
	</g>
	<g>
		<g>
			<g>
				<g>
					<rect x="236.603" y="0.093" class="st4" width="5.98" height="0.366"/>
					<path class="st5" d="M242.676,0.552h-6.167V0h6.167V0.552z M236.696,0.366h5.795v-0.18h-5.795V0.366z"/>
				</g>
				<g>
					<rect x="236.603" y="0.093" class="st4" width="0.373" height="6.676"/>
					<path class="st5" d="M237.069,6.862h-0.559V0h0.559V6.862z M236.696,6.676h0.187v-6.49h-0.187V6.676z"/>
				</g>
				<g>
					<rect x="299.534" y="0.279" class="st4" width="0.373" height="6.49"/>
					<path class="st5" d="M300,6.862h-0.559V0.186H300V6.862z M299.627,6.676h0.187V0.372h-0.187V6.676z"/>
				</g>
				<g>
					<rect x="293.919" y="0.279" class="st4" width="5.988" height="0.366"/>
					<path class="st5" d="M300,0.738h-6.174V0.186H300V0.738z M294.012,0.552h5.802v-0.18h-5.802V0.552z"/>
				</g>
				<g>
					<rect x="293.919" y="63.211" class="st4" width="5.801" height="0.366"/>
					<path class="st5" d="M299.814,63.67h-5.987v-0.552h5.987V63.67z M294.012,63.484h5.615v-0.18h-5.615V63.484z"/>
				</g>
				<g>
					<rect x="299.348" y="57.281" class="st4" width="0.373" height="6.296"/>
					<path class="st5" d="M299.814,63.67h-0.559v-6.482h0.559V63.67z M299.441,63.484h0.187v-6.11h-0.187V63.484z"/>
				</g>
				<g>
					<rect x="236.603" y="57.281" class="st4" width="0.373" height="6.296"/>
					<path class="st5" d="M237.069,63.67h-0.559v-6.482h0.559V63.67z M236.696,63.484h0.187v-6.11h-0.187V63.484z"/>
				</g>
				<g>
					<rect x="236.603" y="63.211" class="st4" width="5.98" height="0.366"/>
					<path class="st5" d="M242.676,63.67h-6.167v-0.552h6.167V63.67z M236.696,63.484h5.795v-0.18h-5.795V63.484z"/>
				</g>
			</g>
			<g>
				<path class="st6" d="M264.972,6.932V4.743h-2.189v2.189v2.189h2.189V6.932L264.972,6.932z M293.431,59.475h-2.189h-0.001h-2.189
					h-2.189h-2.189h-2.189h-2.189v-2.189h-2.189h-0.001h-2.189h-2.189h-2.189v-2.189h2.189h2.189v-2.189v-2.189h-2.189h-2.189
					v-2.189h-2.189v2.189h-2.189v-2.189v-2.189h2.189V44.15h-2.189v-2.189h-2.189v2.189h-2.189v2.189v2.189h2.189v2.189h-2.189
					v2.189v2.189v0.001v2.189v2.189h-2.189h-2.189v-2.189v-2.189v-0.001v-2.189v-2.189v-2.189h2.189v-2.189h-2.189V44.15v-2.189
					h-2.189h-2.189h-2.189h-0.001h-2.189v-2.189h-2.189v-2.189v-2.189h-2.189v-2.189h2.189h2.189v2.189v2.189h2.189v-2.189v-2.189
					h2.189v-2.189h2.189v-2.189h-2.189v-2.189h-2.189v2.189v0.001v2.189h-2.189v-2.189h-2.189v2.189h-2.189v-2.189h-2.189v-2.189
					h-2.189v-2.189v-2.189h2.189h2.189h2.189h2.189h2.189v2.189h2.189v-2.189h2.189h2.189h2.189v-2.189h-2.189v-2.189v-2.189h2.189
					V13.5h-2.189v-2.189h2.189h2.189h2.189V13.5h-2.189v2.189v0.001v2.189h2.189v-2.189h2.189h2.189V13.5h-2.189v-2.189V9.122h2.189
					v2.189h2.189V9.122h2.189V6.932h2.189V4.743h2.189v2.189h-2.189v2.189v2.189h2.189V13.5v2.189h-2.189v2.189h2.189v2.189v2.189
					h2.189v2.189v2.189h2.189v-2.189v-2.189h2.189v2.189v2.189v2.189h2.189v-2.189h2.189v2.189h-2.189v2.189v2.189h2.189v-2.189
					h2.189h0.001h2.189v-2.189h-2.189v-2.189v-2.189v-2.189h2.189v2.189v2.189h2.189v2.189v0.001v2.189v2.189h-2.189v2.189h2.189
					v2.189v2.189h-2.189v-2.189h-2.189v-2.189v-2.189h-2.189v2.189v2.189v2.189h2.189v2.189v0.001v2.189h2.189h2.189v2.189v2.189
					v2.189v2.189v2.189v0.001v2.189v2.189H293.431L293.431,59.475z M293.431,57.285v-2.189v-0.001v-2.189h-2.189v2.189h-2.189v2.189
					h2.189h0.001H293.431L293.431,57.285z M264.971,59.475h2.189v-2.189v-2.189h2.189v-2.189h-2.189h-2.189v2.189v0.001v2.189
					V59.475L264.971,59.475z M289.053,55.096v-2.189v-2.189h-2.189v2.189h-2.189v2.189h2.189H289.053L289.053,55.096z
					 M282.485,55.096v-2.189h-2.189v2.189H282.485L282.485,55.096z M291.242,48.529v-2.189h-2.189v2.189H291.242L291.242,48.529z
					 M284.675,48.529v-2.189V44.15v-2.189h-2.189h-2.189h-2.189v2.189v2.189v2.189h2.189h2.189H284.675L284.675,48.529z
					 M273.728,48.529v-2.189h-2.189v2.189H273.728L273.728,48.529z M275.918,46.339V44.15h-2.189v2.189H275.918L275.918,46.339z
					 M280.296,46.339h2.189V44.15h-2.189V46.339L280.296,46.339z M273.728,44.15V41.96h2.189v-2.189v-2.189h-2.189v-2.189h-2.189
					v2.189h-2.189h-2.189v2.189v2.189h2.189h2.189v2.189H273.728L273.728,44.15z M262.782,44.15v-2.189V41.96v-2.189v-2.189h-2.189
					v-2.189h-2.189v-2.189h-2.189h-2.189v2.189h2.189v2.189h-2.189h-2.189v2.189h2.189h2.189h2.189h2.189v2.189v0.001v2.189H262.782
					L262.782,44.15z M289.053,41.96v-2.189h-2.189v2.189H289.053L289.053,41.96z M286.864,39.772v-2.189v-2.189v-2.189h-2.189
					v-2.189h-2.189v2.189h-2.189v-2.189h2.189v-2.189h-2.189v-2.189h-2.189h-0.001h-2.189v2.189h2.189v2.189v2.189v2.189h2.189
					v2.189h-2.189v2.189h2.189h2.189h2.189H286.864L286.864,39.772z M240.889,41.961h2.189v-2.189v-2.189v-2.189v-2.189h-2.189
					v2.189v2.189v2.189V41.961L240.889,41.961z M282.485,37.582h2.189v-2.189h-2.189V37.582L282.485,37.582z M275.918,35.393v-2.189
					h-2.189v2.189H275.918L275.918,35.393z M271.539,35.393v-2.189h-2.189h-2.189v-2.189v-2.189h2.189v2.189h2.189v-2.189h2.189
					v-2.189h-2.189v-2.189h-2.189v2.189h-2.189v-2.189h-2.189v2.189v2.189h-2.189v-2.189v-2.189h-2.189v2.189h-2.189v2.189h2.189
					v2.189h2.189h2.189v2.189h-2.189v2.189h2.189h0.001h2.189h2.189H271.539L271.539,35.393z M275.918,31.014v-2.189h-2.189v2.189
					H275.918L275.918,31.014z M275.918,26.636v-2.189h2.189v-2.189h-2.189v-2.189v-2.189h-2.189v2.189v2.189v2.189v2.189H275.918
					L275.918,26.636z M256.214,26.636v-2.189h-2.189v2.189H256.214L256.214,26.636z M247.457,26.636v-2.189h-2.189v2.189H247.457
					L247.457,26.636z M269.35,24.447v-2.189h2.189v-2.189v-2.189h2.189V15.69h-2.189h-2.189v2.189v2.189h-2.189v2.189v2.189H269.35
					L269.35,24.447z M264.971,24.447v-2.189h-2.189v2.189H264.971L264.971,24.447z M286.864,24.447h2.189v-2.189h-2.189V24.447
					L286.864,24.447z M267.16,20.068v-2.189h-2.189v2.189H267.16L267.16,20.068z M262.782,20.068v-2.189h-2.189v2.189H262.782
					L262.782,20.068z M275.918,15.689V13.5h-2.189v2.189H275.918L275.918,15.689z M258.403,9.122h2.189V6.932h-2.189V9.122
					L258.403,9.122z M267.16,6.932h2.189V4.743h-2.189V6.932z"/>
				<path class="st7" d="M282.485,6.932h2.189h2.189h2.189h2.189h0.001h2.189v2.189v2.189V13.5v2.189v0.001v2.189h-2.189h-0.001
					h-2.189h-2.189h-2.189h-2.189V15.69v-0.001V13.5v-2.189V9.122V6.932L282.485,6.932z M295.621,6.932V4.743h-2.189h-2.189h-0.001
					h-2.189h-2.189h-2.189h-2.189h-2.189v2.189v2.189v2.189V13.5v2.189v0.001v2.189v2.189h2.189h2.189h2.189h2.189h2.189h0.001
					h2.189h2.189v-2.189V15.69v-0.001V13.5v-2.189V9.122V6.932z"/>
				<path class="st7" d="M256.214,9.122V6.932V4.743h-2.189h-2.189h-0.001h-2.189h-2.189h-2.189h-2.189h-2.189v2.189v2.189v2.189
					V13.5v2.189v0.001v2.189v2.189h2.189h2.189h2.189h2.189h2.189h0.001h2.189h2.189v-2.189V15.69v-0.001V13.5v-2.189V9.122
					L256.214,9.122z M254.024,6.932v2.189v2.189V13.5v2.189v0.001v2.189h-2.189h-0.001h-2.189h-2.189h-2.189h-2.189V15.69v-0.001
					V13.5v-2.189V9.122V6.932h2.189h2.189h2.189h2.189h0.001H254.024z"/>
				<polygon class="st7" points="251.836,11.311 251.836,9.122 249.646,9.122 247.457,9.122 245.268,9.122 245.268,11.311 
					245.268,13.5 245.268,15.69 247.457,15.69 249.646,15.69 251.836,15.69 251.836,13.5 				"/>
				<polygon class="st7" points="291.243,11.311 291.243,9.122 289.053,9.122 286.864,9.122 284.675,9.122 284.675,11.311 
					284.675,13.5 284.675,15.69 286.864,15.69 289.053,15.69 291.243,15.69 291.243,13.5 				"/>
				<path class="st8" d="M243.078,44.15h-2.189v2.189v2.189v2.189v2.189v2.189v0.001v2.189v2.189h2.189h2.189h2.189h2.189h2.189
					h0.001h2.189h2.189v-2.189v-2.189v-0.001v-2.189v-2.189v-2.189v-2.189V44.15h-2.189h-2.189h-0.001h-2.189h-2.189h-2.189H243.078
					L243.078,44.15z M243.078,57.285v-2.189v-0.001v-2.189v-2.189v-2.189v-2.189h2.189h2.189h2.189h2.189h0.001h2.189v2.189v2.189
					v2.189v2.189v0.001v2.189h-2.189h-0.001h-2.189h-2.189h-2.189H243.078z"/>
				<polygon class="st8" points="251.836,50.718 251.836,48.529 249.646,48.529 247.457,48.529 245.268,48.529 245.268,50.718 
					245.268,52.907 245.268,55.097 247.457,55.097 249.646,55.097 251.836,55.097 251.836,52.907 				"/>
			</g>
		</g>
	</g>
</g>
</svg>
