<svg xmlns="http://www.w3.org/2000/svg" xmlns:xlink="http://www.w3.org/1999/xlink" viewBox="0 0 16 16" version="1.1">
<g style="fill: #EC1E26">
<path style=" " d="M 3.371094 1.042969 L 1.796875 2.617188 C 0.933594 3.480469 0.746094 4.824219 1.363281 5.878906 C 2.050781 7.058594 2.613281 7.929688 4.96875 10.28125 C 7.320313 12.636719 7.960938 12.957031 9.121094 13.636719 C 10.179688 14.253906 11.519531 14.066406 12.378906 13.203125 L 13.957031 11.628906 L 10.910156 8.585938 L 9.671875 9.824219 C 9.523438 9.757813 9.300781 9.640625 9.042969 9.476563 C 8.511719 9.136719 7.832031 8.617188 7.234375 8.015625 C 6.632813 7.417969 6.046875 6.671875 5.640625 6.070313 C 5.441406 5.773438 5.28125 5.503906 5.195313 5.328125 C 5.191406 5.320313 5.191406 5.320313 5.1875 5.3125 L 6.414063 4.085938 Z M 3.371094 2.457031 L 5 4.085938 L 4.285156 4.804688 C 4.136719 4.953125 4.121094 5.117188 4.125 5.210938 C 4.125 5.300781 4.140625 5.363281 4.15625 5.421875 C 4.191406 5.542969 4.238281 5.648438 4.296875 5.773438 C 4.417969 6.015625 4.59375 6.304688 4.8125 6.632813 C 5.25 7.28125 5.867188 8.066406 6.523438 8.726563 C 7.183594 9.382813 7.910156 9.9375 8.507813 10.316406 C 8.804688 10.507813 9.066406 10.652344 9.289063 10.75 C 9.402344 10.800781 9.503906 10.839844 9.625 10.863281 C 9.683594 10.875 9.75 10.882813 9.839844 10.875 C 9.929688 10.871094 10.070313 10.839844 10.195313 10.714844 L 10.910156 10 L 12.542969 11.628906 L 11.671875 12.5 C 11.128906 13.042969 10.289063 13.160156 9.625 12.773438 C 8.445313 12.082031 7.996094 11.898438 5.671875 9.578125 C 3.351563 7.253906 2.90625 6.539063 2.226563 5.375 C 1.839844 4.710938 1.957031 3.871094 2.5 3.328125 Z "></path>
</g>
</svg>