<svg id="Layer_1" data-name="Layer 1" xmlns="http://www.w3.org/2000/svg" viewBox="0 0 30.115 51.583"><defs><style>.cls-1,.cls-2{fill:#055ba8;}.cls-1{fill-rule:evenodd;}</style></defs><title>1</title><path class="cls-1" d="M26.981,51.583H3.437A3.18,3.18,0,0,1,.3,48.278V3.305A3.19,3.19,0,0,1,3.437,0H26.981a3.19,3.19,0,0,1,3.134,3.305V48.278a3.278,3.278,0,0,1-3.134,3.305ZM3.361,1.612A1.651,1.651,0,0,0,1.756,3.305V48.278A1.6,1.6,0,0,0,3.361,49.97H26.905a1.65,1.65,0,0,0,1.605-1.692V3.305a1.6,1.6,0,0,0-1.605-1.693Z"/><rect class="cls-2" x="10.705" y="5.077" width="9.175" height="1.612"/><path class="cls-1" d="M15.292,47.958a2.821,2.821,0,0,1,0-5.635,2.822,2.822,0,0,1,0,5.635Zm0-4.837A2.023,2.023,0,1,0,17.2,45.133a1.956,1.956,0,0,0-1.908-2.012Z"/><rect class="cls-2" y="10.712" width="1.529" height="3.225"/><rect class="cls-2" y="14.751" width="1.529" height="3.225"/></svg>