<?xml version="1.0" encoding="utf-8"?>
<!-- Generator: Adobe Illustrator 19.1.0, SVG Export Plug-In . SVG Version: 6.00 Build 0)  -->
<svg version="1.1" id="Layer_1" xmlns="http://www.w3.org/2000/svg" xmlns:xlink="http://www.w3.org/1999/xlink" x="0px" y="0px"
	 viewBox="0 0 45.287 57.5" style="enable-background:new 0 0 45.287 57.5;" xml:space="preserve">
<style type="text/css">
	.st0{fill-rule:evenodd;clip-rule:evenodd;fill:#0D77C6;}
	.st1{fill-rule:evenodd;clip-rule:evenodd;fill:#FFFFFF;}
</style>
<g>
	<path class="st0" d="M22.644,0C10.159,0,0,9.692,0,21.597c0,17.84,21.12,34.954,22.038,35.68c0.176,0.149,0.391,0.223,0.606,0.223
		s0.41-0.074,0.586-0.205c0.899-0.707,22.057-17.542,22.057-35.698C45.287,9.692,35.128,0,22.644,0L22.644,0z"/>
	<path class="st1" d="M22.659,5.104c-10.053,0-18.221,7.981-18.221,17.805c0,9.793,8.168,17.774,18.221,17.774
		c10.021,0,18.189-7.981,18.189-17.774C40.849,13.086,32.681,5.104,22.659,5.104L22.659,5.104z"/>
</g>
</svg>
