<?xml version="1.0" encoding="utf-8"?>
<!-- Generator: Adobe Illustrator 19.1.0, SVG Export Plug-In . SVG Version: 6.00 Build 0)  -->
<svg version="1.1" id="Layer_1" xmlns="http://www.w3.org/2000/svg" xmlns:xlink="http://www.w3.org/1999/xlink" x="0px" y="0px"
	 viewBox="0 0 10 12.697" style="enable-background:new 0 0 10 12.697;" xml:space="preserve">
<style type="text/css">
	.st0{fill-rule:evenodd;clip-rule:evenodd;fill:#FF0000;}
	.st1{fill-rule:evenodd;clip-rule:evenodd;fill:#FFFFFF;}
</style>
<g>
	<g>
		<path class="st0" d="M5,0C2.243,0,0,2.14,0,4.769c0,3.939,4.664,7.718,4.866,7.879C4.905,12.68,4.953,12.697,5,12.697
			c0.047,0,0.091-0.016,0.129-0.045C5.328,12.496,10,8.778,10,4.769C10,2.14,7.757,0,5,0L5,0z"/>
	</g>
	<path class="st1" d="M5.003,1.127c-2.22,0-4.023,1.762-4.023,3.932c0,2.162,1.804,3.925,4.023,3.925
		c2.213,0,4.016-1.762,4.016-3.925C9.02,2.889,7.216,1.127,5.003,1.127L5.003,1.127z"/>
</g>
</svg>
