<svg width="22" height="22" viewBox="0 0 22 22" version="1.1" xmlns="http://www.w3.org/2000/svg" xmlns:xlink="http://www.w3.org/1999/xlink">
<title>Group 2</title>
<desc>Created using Figma</desc>
<g id="Canvas" transform="translate(833 708)">
<g id="Group 2">
<g id="image_large">
<g id="Search">
<g id="Group">
<g id="Vector">
<use xlink:href="#path0_fill" transform="translate(-832 -707)" fill="#FFFFFF"/>
<mask id="mask0_outline_out">
<rect id="mask0_outline_inv" fill="white" x="-1" y="-1" width="18" height="18" transform="translate(-832 -707)"/>
<use xlink:href="#path0_fill" fill="black" transform="translate(-832 -707)"/>
</mask>
<g mask="url(#mask0_outline_out)">
<use xlink:href="#path1_stroke_2x" transform="translate(-832 -707)" fill="#FFFFFF"/>
</g>
</g>
</g>
<g id="Group">
<g id="Vector">
<use xlink:href="#path2_fill" transform="matrix(-0.7071 0.7071 -0.7071 -0.7071 -812 -688.098)" fill="#FFFFFF"/>
<mask id="mask1_outline_out">
<rect id="mask1_outline_inv" fill="white" x="-1" y="-1" width="3" height="10" transform="matrix(-0.7071 0.7071 -0.7071 -0.7071 -812 -688.098)"/>
<use xlink:href="#path2_fill" fill="black" transform="matrix(-0.7071 0.7071 -0.7071 -0.7071 -812 -688.098)"/>
</mask>
<g mask="url(#mask1_outline_out)">
<use xlink:href="#path3_stroke_2x" transform="matrix(-0.7071 0.7071 -0.7071 -0.7071 -812 -688.098)" fill="#FFFFFF"/>
</g>
</g>
</g>
</g>
</g>
</g>
</g>
<defs>
<path id="path0_fill" d="M 8.11337 16.2267C 3.47714 16.2267 0 12.46 0 8.11355C 0 3.47732 3.7669 0 8.11337 0C 12.7496 0 16.2267 3.76708 16.2267 8.11355C 16.2267 12.46 12.4598 16.2267 8.11337 16.2267ZM 8.11337 1.44882C 4.34643 1.44882 1.44882 4.34661 1.44882 8.11355C 1.44882 11.8805 4.34643 14.7779 8.11337 14.7779C 11.8803 14.7779 14.7779 11.8805 14.7779 8.11355C 14.4882 4.34661 11.5905 1.44882 8.11337 1.44882Z"/>
<path id="path1_stroke_2x" d="M 16.2267 8.11355L 16.0267 8.11355L 16.2267 8.11355ZM 14.7779 8.11355L 14.9779 8.11355L 14.9779 8.10587L 14.9773 8.09821L 14.7779 8.11355ZM 8.11337 16.0267C 3.59222 16.0267 0.2 12.3542 0.2 8.11355L -0.2 8.11355C -0.2 12.5658 3.36206 16.4267 8.11337 16.4267L 8.11337 16.0267ZM 0.2 8.11355C 0.2 3.59239 3.87268 0.2 8.11337 0.2L 8.11337 -0.2C 3.66112 -0.2 -0.2 3.36224 -0.2 8.11355L 0.2 8.11355ZM 8.11337 0.2C 12.6345 0.2 16.0267 3.87285 16.0267 8.11355L 16.4267 8.11355C 16.4267 3.66131 12.8647 -0.2 8.11337 -0.2L 8.11337 0.2ZM 16.0267 8.11355C 16.0267 12.3496 12.3494 16.0267 8.11337 16.0267L 8.11337 16.4267C 12.5703 16.4267 16.4267 12.5705 16.4267 8.11355L 16.0267 8.11355ZM 8.11337 1.24882C 4.23597 1.24882 1.24882 4.23616 1.24882 8.11355L 1.64882 8.11355C 1.64882 4.45706 4.4569 1.64882 8.11337 1.64882L 8.11337 1.24882ZM 1.24882 8.11355C 1.24882 11.991 4.23598 14.9779 8.11337 14.9779L 8.11337 14.5779C 4.45688 14.5779 1.64882 11.77 1.64882 8.11355L 1.24882 8.11355ZM 8.11337 14.9779C 11.9908 14.9779 14.9779 11.991 14.9779 8.11355L 14.5779 8.11355C 14.5779 11.77 11.7699 14.5779 8.11337 14.5779L 8.11337 14.9779ZM 14.9773 8.09821C 14.6806 4.24127 11.7087 1.24882 8.11337 1.24882L 8.11337 1.64882C 11.4724 1.64882 14.2957 4.45195 14.5785 8.12889L 14.9773 8.09821Z"/>
<path id="path2_fill" d="M 1.44889 -0.000141487L 7.07433e-05 -0.000141487L 7.07433e-05 8.69279L 1.44889 8.69279L 1.44889 -0.000141487Z"/>
<path id="path3_stroke_2x" d="M 7.07433e-05 -0.000141487L 7.07433e-05 -0.200141L -0.199929 -0.200141L -0.199929 -0.000141487L 7.07433e-05 -0.000141487ZM 1.44889 -0.000141487L 1.64889 -0.000141487L 1.64889 -0.200141L 1.44889 -0.200141L 1.44889 -0.000141487ZM 1.44889 8.69279L 1.44889 8.89279L 1.64889 8.89279L 1.64889 8.69279L 1.44889 8.69279ZM 7.07433e-05 8.69279L -0.199929 8.69279L -0.199929 8.89279L 7.07433e-05 8.89279L 7.07433e-05 8.69279ZM 7.07433e-05 0.199859L 1.44889 0.199859L 1.44889 -0.200141L 7.07433e-05 -0.200141L 7.07433e-05 0.199859ZM 1.24889 -0.000141487L 1.24889 8.69279L 1.64889 8.69279L 1.64889 -0.000141487L 1.24889 -0.000141487ZM 1.44889 8.49279L 7.07433e-05 8.49279L 7.07433e-05 8.89279L 1.44889 8.89279L 1.44889 8.49279ZM 0.200071 8.69279L 0.200071 -0.000141487L -0.199929 -0.000141487L -0.199929 8.69279L 0.200071 8.69279Z"/>
</defs>
</svg>
