<svg id="Layer_1" data-name="Layer 1" xmlns="http://www.w3.org/2000/svg" viewBox="0 0 44.739 44.749"><defs><style>.cls-1,.cls-3{fill:#cd332c;}.cls-2{fill:#fff;}.cls-2,.cls-3{fill-rule:evenodd;}</style></defs><title>1</title><rect class="cls-1" width="44.739" height="44.749"/><path class="cls-2" d="M19.3,4.339H17.277L15.931,9.653,14.515,4.339h-2.1c.452,1.276.9,2.471,1.276,3.747a24.314,24.314,0,0,1,1.195,4.259v5.464h2.019V12.345ZM24.69,14.6V11.079a3.649,3.649,0,0,0-.6-2.4A2.511,2.511,0,0,0,22,7.634a2.43,2.43,0,0,0-2.1,1.045,4.037,4.037,0,0,0-.6,2.4V14.6a3.639,3.639,0,0,0,.6,2.391A2.521,2.521,0,0,0,22,18.03a2.424,2.424,0,0,0,2.089-1.044,4.179,4.179,0,0,0,.6-2.391Zm-1.869.291c0,.9-.3,1.427-.9,1.427s-.894-.452-.894-1.427V10.7c0-.894.3-1.417.894-1.417s.9.442.9,1.417Zm8.6,2.923V7.785h-1.8v7.634c-.372.592-.744.823-1.115.823-.231,0-.382-.15-.452-.452V7.7h-1.8V15.64a6.847,6.847,0,0,0,.15,1.5,1.1,1.1,0,0,0,1.2.743,2.944,2.944,0,0,0,2.1-1.2v1.125Z"/><path class="cls-2" d="M37.256,30a31.515,31.515,0,0,1-.523,7.032,3.731,3.731,0,0,1-3.214,2.923,91.412,91.412,0,0,1-11.15.452,91.322,91.322,0,0,1-11.149-.452,3.731,3.731,0,0,1-3.214-2.923A31.515,31.515,0,0,1,7.483,30a31.51,31.51,0,0,1,.523-7.031,3.743,3.743,0,0,1,3.214-2.923,93.374,93.374,0,0,1,11.149-.442,93.466,93.466,0,0,1,11.15.442,3.743,3.743,0,0,1,3.214,2.923A31.51,31.51,0,0,1,37.256,30Z"/><path class="cls-3" d="M16.011,24.991V23.123H9.723v1.868h2.1V36.442h2.019V24.991Zm3.666,11.451V35.4a3,3,0,0,1-2.019,1.2,1.019,1.019,0,0,1-1.125-.754,5.775,5.775,0,0,1-.15-1.5V26.488h1.8v8.005c.07.3.15.452.442.452.381,0,.753-.3,1.125-.823V26.568h1.8v9.944H19.677ZM26.488,33.6c0,.894-.3,1.346-.754,1.346a1.264,1.264,0,0,1-.894-.452V28.436a1.268,1.268,0,0,1,.894-.452c.523,0,.754.452.754,1.346Zm1.788-.15V29.481a11.116,11.116,0,0,0-.151-2.019,1.413,1.413,0,0,0-1.416-1.125,2.539,2.539,0,0,0-1.869,1.045v-4.34h-1.8v13.32h1.8V35.4a2.425,2.425,0,0,0,1.869,1.115A1.363,1.363,0,0,0,28.125,35.4a10.28,10.28,0,0,0,.151-1.948Zm5.012-3.144H31.5v-.894c0-.9.291-1.346.894-1.346s.894.442.894,1.346Zm1.8,2.913V33H33.218a3.546,3.546,0,0,1-.071,1.2.826.826,0,0,1-.823.753c-.6,0-.9-.452-.9-1.346V31.8h3.6V29.782a3.827,3.827,0,0,0-.523-2.32,2.542,2.542,0,0,0-2.1-1.045,2.663,2.663,0,0,0-2.17,1.045,3.976,3.976,0,0,0-.522,2.32v3.436a3.742,3.742,0,0,0,.593,2.32,2.683,2.683,0,0,0,2.169,1.055,2.6,2.6,0,0,0,2.18-1.055,2.547,2.547,0,0,0,.442-1.045,7.367,7.367,0,0,1,0-1.275Z"/></svg>